<svg width="33" height="21" viewBox="0 0 33 21" fill="none" xmlns="http://www.w3.org/2000/svg">
<path d="M31.3006 6.125H27.5526L26.5108 3.85C25.4403 1.51102 22.8855 0 20.0014 0H12.0508C9.16734 0 6.61189 1.51102 5.54075 3.85L4.49904 6.125H0.751633C0.262705 6.125 -0.0960101 6.52641 0.0229354 6.94039L0.398553 8.25289C0.481815 8.54492 0.782309 8.75 1.12725 8.75H2.38369C1.54293 9.39149 1.00142 10.3239 1.00142 11.375V14C1.00142 14.8816 1.38705 15.6773 2.00307 16.293V19.25C2.00307 20.2163 2.90016 21 4.00636 21H6.00965C7.11584 21 8.01294 20.2163 8.01294 19.25V17.5H24.0393V19.25C24.0393 20.2163 24.9364 21 26.0426 21H28.0459C29.1521 21 30.0492 20.2163 30.0492 19.25V16.293C30.6652 15.6778 31.0508 14.8821 31.0508 14V11.375C31.0508 10.3239 30.5093 9.39149 29.6692 8.75H30.9256C31.2705 8.75 31.571 8.54492 31.6543 8.25289L32.0299 6.94039C32.1482 6.52641 31.7895 6.125 31.3006 6.125ZM9.26062 5.14992C9.71699 4.15352 10.8219 3.5 12.0508 3.5H20.0014C21.2303 3.5 22.3352 4.15352 22.7916 5.14992L24.0393 7.875H8.01294L9.26062 5.14992ZM6.00965 13.9891C4.80767 13.9891 4.00636 13.2913 4.00636 12.2445C4.00636 11.1978 4.80767 10.5 6.00965 10.5C7.21163 10.5 9.01459 12.0701 9.01459 13.1168C9.01459 14.1635 7.21163 13.9891 6.00965 13.9891ZM26.0426 13.9891C24.8406 13.9891 23.0376 14.1635 23.0376 13.1168C23.0376 12.0701 24.8406 10.5 26.0426 10.5C27.2446 10.5 28.0459 11.1978 28.0459 12.2445C28.0459 13.2913 27.2446 13.9891 26.0426 13.9891Z" fill="#343A40"/>
</svg>
